<svg width="16" height="22" viewBox="0 0 16 22" fill="none" xmlns="http://www.w3.org/2000/svg">
<path fill-rule="evenodd" clip-rule="evenodd" d="M3.2 0H12.8C14.5673 0 16 1.40701 16 3.14264V21.2128C16 21.8907 15.1844 22.2504 14.6685 21.8L8 15.9786L1.33149 21.8C0.820729 22.2459 0.0162814 21.8978 0.000243556 21.233L0 21.2128V3.14264C0 1.40701 1.43269 0 3.2 0ZM12.8265 1.57153L12.8 1.57132H3.2C2.31634 1.57132 1.6 2.27482 1.6 3.14264V19.4633L7.46851 14.3403C7.76695 14.0798 8.21437 14.0758 8.51739 14.3283L8.53149 14.3403L14.4 19.4633V3.14264C14.4 2.2835 13.6979 1.58541 12.8265 1.57153Z" fill="#141E28" fill-opacity="0.48"/>
</svg>
