<svg width="24" height="24" viewBox="0 0 24 24" fill="none" xmlns="http://www.w3.org/2000/svg">
<path fill-rule="evenodd" clip-rule="evenodd" d="M-6.73419e-05 11.7553C-0.0208365 5.26061 5.35539 0 11.9904 0C17.701 0 22.5967 3.93953 23.7435 9.34887C23.9135 10.1412 23.9995 10.9493 24 11.7603C24 18.3075 18.7704 23.5971 12.1812 23.5971C11.2229 23.5971 9.8634 23.3798 8.92522 23.1172L8.86012 23.0989L8.76392 23.0711L8.6682 23.0428L8.57496 23.0147L8.48145 22.9859L8.43468 22.9713L8.34127 22.9418L8.24824 22.9119L8.15588 22.8817L8.06443 22.8515L7.97416 22.8211L7.88534 22.7909L7.75539 22.7459L7.67132 22.7163L7.58963 22.6871L7.47209 22.6445L7.39746 22.617L7.32612 22.5903L7.22584 22.552C7.14464 22.5208 7.05841 22.5048 6.96911 22.5047C6.87607 22.5044 6.78392 22.5229 6.69824 22.5592L6.67466 22.5692L3.06597 23.8713L3.0285 23.8862C2.89398 23.9378 2.7537 23.9729 2.61068 23.9907L2.57462 23.9949L2.52427 24.0001L2.47364 24C2.08529 23.9988 1.71353 23.8424 1.44121 23.5655C1.16888 23.2886 1.0186 22.9143 1.02386 22.526L1.02425 22.4971L1.0264 22.4684C1.0358 22.3427 1.05847 22.2185 1.09401 22.0976L2.10172 18.4519L2.09662 18.4385C2.07947 18.3951 2.0545 18.3431 2.02396 18.2882L2.01805 18.2777L2.00276 18.2527C1.99016 18.2327 1.97701 18.2131 1.96335 18.1938L1.94247 18.1651L1.92553 18.1425L1.87276 18.0621C0.650813 16.1851 -7.21178e-05 13.9931 -6.73419e-05 11.7553ZM21.898 9.74251C20.9362 5.20541 16.8123 1.88698 11.9904 1.88698C6.3895 1.88698 1.86951 6.30976 1.88691 11.7523C1.88691 13.6464 2.44265 15.4989 3.4853 17.0801L3.4732 17.0617L3.48678 17.0801C3.53154 17.1422 3.57408 17.2058 3.61429 17.2709L3.64402 17.32L3.65171 17.3332C3.75986 17.5223 3.84944 17.7162 3.91158 17.9143C4.00883 18.2244 4.03727 18.5296 3.95146 18.8428L3.1214 21.8453L5.99043 20.8099L6.00101 20.8056C6.29766 20.6856 6.61399 20.622 6.932 20.6179L6.97349 20.6177C7.29106 20.6181 7.60588 20.6766 7.90397 20.7911L7.93371 20.8025L7.99613 20.8262L8.09651 20.8636L8.16752 20.8896L8.27943 20.9298L8.35719 20.9573L8.47785 20.9992L8.56053 21.0274L8.64466 21.0558L8.77294 21.0982L8.85941 21.1263L8.9463 21.1541L8.98981 21.1678L9.07677 21.1949L9.16342 21.2213L9.26474 21.2515L9.39179 21.2883L9.4338 21.3001C10.2173 21.5194 11.4107 21.7101 12.1812 21.7101C17.7234 21.7101 22.113 17.2702 22.113 11.7608C22.1126 11.0831 22.0407 10.4074 21.898 9.74251Z" fill="#141E28" fill-opacity="0.48"/>
<circle cx="6.89699" cy="12" r="1.701" fill="#141E28" fill-opacity="0.48"/>
<circle cx="12" cy="12" r="1.701" fill="#141E28" fill-opacity="0.48"/>
<circle cx="17.103" cy="12" r="1.701" fill="#141E28" fill-opacity="0.48"/>
</svg>
