<svg width="24" height="22" viewBox="0 0 24 22" fill="none" xmlns="http://www.w3.org/2000/svg">
<path fill-rule="evenodd" clip-rule="evenodd" d="M10.7984 0.460779C11.4138 -0.147557 12.5622 -0.15178 13.1848 0.444335L13.2022 0.461432L15.795 2.89178V1.69724C15.795 1.19306 16.2074 0.783213 16.7199 0.773526L16.7385 0.773351H19.1078C19.6226 0.773351 20.0412 1.1772 20.0511 1.67905L20.0512 1.69724V6.88138L23.7089 10.3099C24.0801 10.6579 24.098 11.2314 23.7529 11.6007L23.7381 11.6162C23.3827 11.9797 22.7971 11.9971 22.4199 11.6592L22.4041 11.6447L21.6307 10.9198V20.2574C21.6307 21.1854 20.8702 21.9394 19.9262 21.9544L19.8975 21.9546H15.159C14.6441 21.9546 14.2256 21.5508 14.2157 21.0489L14.2155 21.0308V14.4574C14.2155 14.3309 14.114 14.2277 13.9864 14.2215L13.9744 14.2212H10.0256C9.89648 14.2212 9.79105 14.3206 9.78478 14.4456L9.78449 14.4574V21.0308C9.78449 21.5349 9.37207 21.9448 8.85957 21.9545L8.841 21.9546H4.10249C3.15482 21.9546 2.38479 21.2099 2.36949 20.2855L2.36925 20.2574V10.9198L1.59591 11.6447C1.22473 11.9927 0.638804 11.9851 0.277084 11.6313L0.261934 11.6162C-0.0933831 11.2527 -0.0856337 10.679 0.275596 10.3248L0.29107 10.3099L10.7984 0.460779ZM18.1642 5.1126L18.1642 2.62107H17.682L17.682 4.66055L18.1642 5.1126ZM12 1.8923L19.7438 9.15103L19.7437 20.1069H16.1025L16.1025 14.4574L16.1022 14.4229C16.0834 13.2879 15.138 12.3735 13.9744 12.3735H10.0256L9.99043 12.3737C8.83134 12.3921 7.89751 13.318 7.89751 14.4574L7.89748 20.1069H4.2562L4.25623 9.15103L12 1.8923Z" fill="#141E28" fill-opacity="0.48"/>
</svg>
