<svg width="14" height="18" viewBox="0 0 14 18" fill="none" xmlns="http://www.w3.org/2000/svg">
<path d="M10.1111 16.6154C10.5407 16.6154 10.8889 16.9253 10.8889 17.3077C10.8889 17.6855 10.5489 17.9926 10.1264 17.9999L10.1111 18H3.88889C3.45934 18 3.11111 17.69 3.11111 17.3077C3.11111 16.9299 3.4511 16.6228 3.87359 16.6155L3.88889 16.6154H10.1111Z" fill="#141E28"/>
<path d="M13.2222 6.23077C13.6467 6.23077 13.9917 6.53339 13.9999 6.90945L14 6.92308V8.30769C14 11.7362 10.8518 14.5385 7 14.5385C3.18674 14.5385 0.0630348 11.792 0.000942022 8.41036L0 8.30769V6.92308C0 6.54073 0.348223 6.23077 0.777778 6.23077C1.20222 6.23077 1.54725 6.53339 1.55541 6.90945L1.55556 6.92308V8.30769C1.55556 10.9715 4.00733 13.1538 7 13.1538C9.96274 13.1538 12.3954 11.0149 12.4437 8.38746L12.4444 8.30769V6.92308C12.4444 6.54073 12.7927 6.23077 13.2222 6.23077Z" fill="#141E28"/>
<path d="M7.00001 13.1538C7.42445 13.1538 7.76948 13.4565 7.77764 13.8325L7.77778 13.8462V17.3077C7.77778 17.69 7.42956 18 7.00001 18C6.57557 18 6.23053 17.6974 6.22238 17.3213L6.22223 17.3077V13.8462C6.22223 13.4638 6.57045 13.1538 7.00001 13.1538Z" fill="#141E28"/>
<path fill-rule="evenodd" clip-rule="evenodd" d="M4.24556 1.00977C4.97672 0.358961 5.96987 -0.00461867 7.00389 -2.56711e-05L7.06526 0.000421064C9.21358 0.0304381 10.8889 1.54089 10.8889 3.46154V8.26442C10.8889 10.1961 9.14033 11.7692 7.00001 11.7692C4.87138 11.7692 3.11108 10.1721 3.11108 8.26442L3.1111 3.42962C3.11646 2.52163 3.52404 1.652 4.24556 1.00977ZM7.00001 1.38458L6.99613 1.38457C6.37735 1.38182 5.78303 1.5994 5.3455 1.98884C4.91375 2.37315 4.66984 2.89356 4.66664 3.43326L4.66664 8.26442C4.66664 9.41324 5.73723 10.3846 7.00001 10.3846C8.27747 10.3846 9.33335 9.43467 9.33335 8.26442V3.46154C9.33335 2.28619 8.32045 1.38458 7.00001 1.38458Z" fill="#141E28"/>
</svg>
