<svg width="19" height="22" viewBox="0 0 19 22" fill="none" xmlns="http://www.w3.org/2000/svg">
<path fill-rule="evenodd" clip-rule="evenodd" d="M18.5889 15.2247L18.5618 15.1908L18.1638 14.7083L17.9864 14.491L17.9278 14.4181C17.9096 14.3951 17.8918 14.3724 17.8742 14.3498L17.8224 14.2826C17.7884 14.2382 17.7556 14.1944 17.7238 14.1511L17.677 14.0865C17.3394 13.6154 17.1288 13.1978 16.9627 12.6517L16.9463 12.5971L16.9383 12.5695L16.9225 12.5136L16.9071 12.4569L16.892 12.3993L16.8773 12.3409L16.8629 12.2815L16.8559 12.2515L16.842 12.1909L16.8286 12.1293L16.8154 12.0668L16.809 12.0352L16.7964 11.9713L16.7842 11.9064L16.7723 11.8406L16.7665 11.8073L16.7552 11.74L16.7497 11.706L16.7388 11.6372L16.7284 11.5674L16.7183 11.4965L16.7086 11.4247L16.6992 11.3518L16.6902 11.2778L16.6815 11.2028L16.6732 11.1267L16.6692 11.0882L16.6615 11.0104L16.6577 10.9711L16.6505 10.8917L16.6436 10.8111L16.6371 10.7294L16.631 10.6465L16.6252 10.5625L16.6198 10.4773L16.6172 10.4342L16.6123 10.3472L16.6078 10.259L16.6036 10.1696L16.6017 10.1244L16.5981 10.0331L16.5948 9.94061L16.5933 9.89388L16.5906 9.79945L16.5882 9.70375L16.5863 9.60676L16.5846 9.50846L16.5834 9.40885L16.5824 9.30791L16.5819 9.20564L16.5817 9.10201C16.5817 7.13495 16.1071 5.59785 15.2174 4.43681C14.5043 3.50631 13.5917 2.882 12.4579 2.41631C12.4528 2.4142 12.4378 2.40385 12.4249 2.39038L12.4189 2.3838L12.4177 2.38227C12.0085 1.01869 10.8796 0 9.50004 0C8.12684 0 7.00155 1.01 6.59021 2.36528L6.58453 2.38435L6.57933 2.39005C6.56683 2.40298 6.55159 2.41346 6.54518 2.41609C5.40875 2.88297 4.49725 3.50584 3.78451 4.43561C2.9039 5.58435 2.43034 7.10235 2.42096 9.04307L2.42057 9.20561L2.41997 9.30786L2.419 9.40877L2.41768 9.50836L2.41599 9.60664L2.41394 9.70361L2.41153 9.79929L2.40876 9.8937L2.40563 9.98684L2.40214 10.0787L2.39829 10.1694L2.39408 10.2588L2.39184 10.303L2.38708 10.3906L2.38197 10.477L2.37928 10.5198L2.37363 10.6044L2.36762 10.6878L2.36126 10.7701L2.35453 10.8512L2.34745 10.9312L2.34 11.0101L2.3322 11.0879L2.32404 11.1645L2.31553 11.2401L2.30665 11.3146L2.29742 11.388L2.28783 11.4604L2.27788 11.5317L2.26758 11.6021L2.25692 11.6714L2.25146 11.7056L2.24026 11.7734L2.22871 11.8402L2.2168 11.9061L2.20454 11.9709L2.19828 12.003L2.18548 12.0664L2.17895 12.0978L2.16562 12.1599L2.15194 12.221L2.1379 12.2812L2.13075 12.311L2.11618 12.3699L2.10876 12.399L2.09365 12.4566L2.0782 12.5133L2.06239 12.5692L2.05435 12.5968L2.03801 12.6515C1.8452 13.2845 1.59262 13.7449 1.15204 14.3161L1.09933 14.3838L1.0602 14.4333L0.95319 14.5655L0.439588 15.1892C-0.523341 16.3647 0.350079 18.0714 1.90053 18.0714H5.56221L5.56274 18.1364C5.59751 20.2761 7.34698 22 9.50004 22C11.6748 22 13.4379 20.2411 13.4379 18.0714H17.1045C18.6353 18.0714 19.5022 16.3954 18.5889 15.2247ZM12.6503 16.5H17.1045C17.3469 16.5 17.4438 16.3094 17.3407 16.1834L16.9753 15.7407L16.7936 15.5185L16.7117 15.4171L16.6606 15.3526C16.0756 14.6073 15.718 13.9712 15.4554 13.1081L15.4358 13.0425C15.4293 13.0205 15.423 12.9984 15.4166 12.9762L15.3979 12.9091L15.3797 12.8412C15.3586 12.7615 15.3385 12.6801 15.3193 12.5971L15.3031 12.5254C15.2977 12.5014 15.2925 12.4773 15.2873 12.4529L15.2719 12.3796C15.2669 12.355 15.2619 12.3302 15.257 12.3053L15.2425 12.2302L15.2355 12.1922L15.2216 12.1157L15.2149 12.0771L15.2017 11.9991L15.189 11.9202L15.1767 11.8404L15.1708 11.8001L15.1591 11.7187L15.1479 11.6364L15.1425 11.5948L15.132 11.511L15.1219 11.4261L15.117 11.3832L15.1075 11.2967L15.0985 11.2092L15.0899 11.1206L15.0817 11.0309L15.074 10.9401L15.0666 10.8482L15.0631 10.8018L15.0564 10.7081L15.0502 10.6134L15.0444 10.5174L15.0389 10.4203L15.034 10.322L15.0316 10.2724L15.0273 10.1723L15.0233 10.071L15.0215 10.0199L15.0182 9.9167L15.0153 9.81226L15.014 9.75957L15.0117 9.65324L15.0099 9.54561L15.0084 9.43669L15.0074 9.32646L15.0068 9.2149L15.0065 9.05306C14.9991 7.44208 14.6291 6.25648 13.966 5.39124C13.4426 4.70826 12.7547 4.23759 11.8588 3.86963L11.8373 3.86064C11.4089 3.67749 11.0461 3.29475 10.9127 2.84627C10.69 2.09026 10.1183 1.57143 9.50004 1.57143C8.88173 1.57143 8.31029 2.09065 8.08993 2.84702L8.08312 2.86945C7.94316 3.31693 7.57575 3.69257 7.14435 3.86938L7.10238 3.88676C6.22427 4.2533 5.5504 4.71878 5.03568 5.39024C4.36638 6.26333 3.99594 7.46411 3.99594 9.10246L3.99586 9.15907L3.99538 9.27129L3.9945 9.38218L3.9932 9.49175L3.99149 9.60002L3.98936 9.70699L3.98683 9.81269L3.98387 9.91712L3.9805 10.0203L3.97672 10.1222L3.97466 10.1727L3.97025 10.2728L3.96542 10.3717L3.96016 10.4694L3.95738 10.5178L3.95149 10.6138L3.94518 10.7085L3.93845 10.8022L3.93493 10.8485L3.92756 10.9405L3.91976 11.0313L3.91154 11.121L3.90289 11.2096L3.89382 11.2971L3.88431 11.3836L3.87437 11.469L3.86401 11.5534L3.85321 11.6367L3.84764 11.678L3.83619 11.7599L3.82431 11.8407L3.8182 11.8807L3.80567 11.9601L3.79269 12.0385L3.77928 12.116L3.76543 12.1926L3.75834 12.2305L3.74384 12.3056L3.72889 12.3799L3.72125 12.4167L3.70563 12.4896L3.69766 12.5257L3.68139 12.5974C3.66489 12.6686 3.64772 12.7385 3.62989 12.8072L3.61183 12.8755L3.60263 12.9094L3.5839 12.9765L3.57437 13.0097L3.55496 13.0757L3.54509 13.1084C3.27761 13.9865 2.91188 14.6296 2.30849 15.3919L2.2952 15.4086L2.21403 15.5092L1.94248 15.8407L1.65398 16.1903C1.55993 16.3154 1.6524 16.4935 1.88756 16.4998L1.90053 16.5H6.34978H12.6503ZM7.13734 18.0714C7.13734 19.3732 8.19516 20.4286 9.50004 20.4286C10.7919 20.4286 11.8415 19.3942 11.8624 18.1104L11.8627 18.0714H7.13734Z" fill="#141E28" fill-opacity="0.48"/>
</svg>
