<svg width="22" height="22" viewBox="0 0 22 22" fill="none" xmlns="http://www.w3.org/2000/svg">
<path fill-rule="evenodd" clip-rule="evenodd" d="M9.1572 0C4.09982 0 0 4.09982 0 9.1572C0 14.2146 4.09982 18.3144 9.1572 18.3144C11.3745 18.3144 13.4076 17.5264 14.992 16.2151L20.5236 21.7467L20.5378 21.7606C20.8765 22.0844 21.4136 22.0797 21.7467 21.7467C22.0844 21.4089 22.0844 20.8613 21.7467 20.5236L16.2151 14.992C17.5264 13.4076 18.3144 11.3745 18.3144 9.1572C18.3141 4.09993 14.2145 0.000321902 9.1572 0ZM9.15715 1.72973C13.2591 1.72999 16.5844 5.05525 16.5847 9.15726C16.5847 13.2593 13.2593 16.5847 9.1572 16.5847C5.05512 16.5847 1.72973 13.2593 1.72973 9.1572C1.72973 5.05512 5.05512 1.72973 9.15715 1.72973Z" fill="#141E28" fill-opacity="0.48"/>
</svg>
