<svg width="22" height="22" viewBox="0 0 22 22" fill="none" xmlns="http://www.w3.org/2000/svg">
<path fill-rule="evenodd" clip-rule="evenodd" d="M13.089 0.000126608L13.0741 0L8.91678 4.74106e-05L8.8865 0.000781086C8.22582 0.0241018 7.67022 0.496551 7.55607 1.13555L7.55261 1.15647L7.23184 3.38937L7.20516 3.4022L7.13475 3.43674C6.80688 3.59938 6.48922 3.78218 6.18408 3.98385L6.15243 4.0049L4.01945 3.16458L4.00379 3.15858C3.37242 2.9237 2.65987 3.16722 2.31531 3.73564L0.236335 7.25472L0.225269 7.27373C-0.0979292 7.83926 0.0332271 8.55271 0.541625 8.9733L0.553622 8.98305L0.559687 8.98784L2.38049 10.3873L2.37738 10.4231C2.36162 10.6158 2.35339 10.8073 2.35339 10.9978L2.35365 11.0562L2.35458 11.1223C2.35753 11.2769 2.36589 11.4351 2.37935 11.6004L2.3813 11.624L0.559685 13.0235L0.551066 13.0304C0.0278881 13.454 -0.105368 14.1856 0.236061 14.76L2.31424 18.2777L2.3255 18.2959C2.67452 18.8508 3.37845 19.0861 4.00273 18.8535L4.01033 18.8506L6.15016 18.0079L6.17548 18.0251L6.24081 18.0684C6.54668 18.2692 6.86675 18.4507 7.19809 18.6109L7.23189 18.6271L7.55109 20.8492L7.55532 20.8757L7.56041 20.902C7.69279 21.5317 8.25398 21.9872 8.91097 21.9984L8.91845 21.9984L13.0832 21.9984L13.1135 21.9977C13.7742 21.9744 14.3298 21.5019 14.4439 20.8629L14.4474 20.842L14.7681 18.609L14.7948 18.5963L14.8652 18.5617C15.1931 18.3991 15.5108 18.2163 15.8159 18.0146L15.8475 17.9936L17.9806 18.8339L17.9962 18.8399C18.6276 19.0748 19.3401 18.8313 19.6847 18.2628L21.7637 14.7438L21.7747 14.7248C22.1005 14.1551 21.9646 13.4355 21.448 13.0165L21.4344 13.0057L19.6159 11.6103L19.6203 11.5558L19.6259 11.4771C19.6361 11.3197 19.6418 11.162 19.6427 11.0042L19.6425 10.9509L19.6418 10.8915C19.6392 10.7328 19.6311 10.5718 19.618 10.3991L19.6162 10.3763L21.4316 8.9818L21.4489 8.96813C21.9721 8.54452 22.1054 7.81283 21.7639 7.23849L19.6858 3.72076L19.6745 3.70256C19.3255 3.14765 18.6215 2.91239 17.9973 3.14497L17.9897 3.14784L15.8498 3.99051L15.8245 3.97342L15.7592 3.93009C15.4533 3.72924 15.1332 3.5478 14.8019 3.38754L14.7681 3.37134L14.4489 1.14923L14.4447 1.1228L14.4396 1.09651C14.3072 0.466813 13.746 0.0112474 13.089 0.000126608ZM9.22232 1.69231H12.7802L13.0619 3.65352L13.0658 3.67857C13.1516 4.20345 13.4941 4.65187 13.9831 4.87958L14.0463 4.90985C14.3408 5.05279 14.6273 5.219 14.9 5.40545L14.9221 5.42026L14.9448 5.43493C15.3933 5.71941 15.9546 5.77343 16.451 5.57805L18.3446 4.83223L20.1201 7.83766L18.5105 9.07406L18.4901 9.09004L18.47 9.1063C18.0644 9.43973 17.8476 9.94322 17.8878 10.4598L17.8891 10.4748L17.8958 10.5631C17.9072 10.7219 17.913 10.8645 17.913 10.9992C17.9113 11.2862 17.8893 11.5776 17.8474 11.8667L17.8448 11.8858L17.8428 11.9048C17.8147 12.1911 17.9373 12.4729 18.1699 12.6514L20.1185 14.1467L18.3429 17.1523L16.4493 16.4063L16.4242 16.3968C15.9135 16.2071 15.3426 16.2756 14.8961 16.58L14.8374 16.6191C14.5623 16.8005 14.2709 16.9645 13.9688 17.1078L13.9458 17.1189L13.9231 17.1304C13.4559 17.3704 13.1346 17.8159 13.0617 18.3286L12.7776 20.3062H9.21978L8.93811 18.345L8.93422 18.3199C8.84844 17.795 8.50592 17.3466 8.01689 17.1189L7.95367 17.0886C7.6592 16.9457 7.37268 16.7795 7.10002 16.593L7.07789 16.5782L7.05518 16.5636C6.60674 16.2791 6.04537 16.2251 5.54901 16.4204L3.65535 17.1662L1.87989 14.1608L3.48951 12.9244L3.50993 12.9083C3.92896 12.5723 4.15174 12.0609 4.10965 11.5367L4.10373 11.4674C4.09005 11.2997 4.08312 11.1451 4.08312 10.9978C4.08312 10.8328 4.09138 10.6645 4.10771 10.4883L4.10971 10.4628L4.1113 10.4374C4.13997 9.91154 3.9072 9.40803 3.4857 9.08466L1.88146 7.85173L3.65703 4.84613L5.5507 5.59219L5.57577 5.60173C6.08649 5.79142 6.65737 5.72289 7.10388 5.41847L7.16259 5.37935C7.43775 5.19801 7.72909 5.03399 8.0312 4.89071L8.05415 4.87959L8.07687 4.86813C8.54415 4.6281 8.86538 4.18256 8.93828 3.66992L9.22232 1.69231ZM11.3915 7.13559C13.2725 7.32044 14.7602 8.77593 14.9492 10.6177C15.114 12.2499 14.2126 13.8074 12.6972 14.5088C11.1818 15.2103 9.37931 14.9044 8.19388 13.7447C7.00844 12.5849 6.6958 10.8214 7.41279 9.33876C8.12977 7.85614 9.72168 6.97425 11.3915 7.13559ZM9.41698 12.548C8.74824 11.8937 8.57187 10.8989 8.97634 10.0625C9.38081 9.22613 10.2789 8.72863 11.22 8.81957C12.281 8.92383 13.1213 9.74592 13.228 10.7854C13.3208 11.7048 12.8123 12.5834 11.9574 12.9791C11.1026 13.3748 10.0857 13.2023 9.41698 12.548Z" fill="#141E28" fill-opacity="0.48"/>
</svg>
