<svg width="24" height="20" viewBox="0 0 24 20" fill="none" xmlns="http://www.w3.org/2000/svg">
<path fill-rule="evenodd" clip-rule="evenodd" d="M11.9255 5.25755L11.9779 5.25528V0.939204C11.9779 0.161536 12.9724 -0.237187 13.5728 0.299774L23.708 9.364C24.0973 9.71223 24.0973 10.2946 23.708 10.6429L13.5728 19.7071C12.9724 20.244 11.9779 19.8453 11.9779 19.0677V14.7852L11.926 14.7867C11.5922 14.7968 11.2699 14.8122 10.9585 14.8329L10.8155 14.8429L10.674 14.8536C10.3457 14.8795 10.0297 14.9116 9.7251 14.9499L9.59527 14.9667C8.15324 15.1587 6.97057 15.4941 5.95343 15.979L5.90182 16.0038C4.98988 16.4456 4.19274 17.0065 3.36164 17.7943L3.27978 17.8725C3.25245 17.8988 3.22508 17.9254 3.19767 17.9522L3.11527 18.0334L3.03257 18.1162C3.00494 18.144 2.97726 18.1721 2.94951 18.2005L2.86609 18.2864L2.78225 18.3739L2.74017 18.4182L2.65566 18.5081C2.55679 18.614 2.45693 18.7233 2.35585 18.8361L2.26891 18.9337L2.18134 19.033L2.09311 19.1341L2.00419 19.237L1.95946 19.2892L1.86944 19.3948L1.82415 19.4484L1.73296 19.5568L1.68707 19.6118C1.1347 20.2744 0 19.9084 0 19.0677C0 15.2521 0.766503 12.0711 2.51729 9.6807C4.48712 6.99124 7.60563 5.4589 11.9255 5.25755ZM21.69 10.0034L13.8649 3.00506V6.11876C13.8649 6.60697 13.4424 7.00274 12.9214 7.00274C8.67995 7.00274 5.82398 8.2906 4.07317 10.681C2.96329 12.1964 2.29887 14.1502 2.0284 16.4781L2.02019 16.5501L2.07625 16.4972C3.00437 15.6252 3.92097 14.9797 4.98196 14.4593L5.03523 14.4334C7.04903 13.4579 9.52583 13.0041 12.9214 13.0041C13.4424 13.0041 13.8649 13.3999 13.8649 13.8881V17.0017L21.69 10.0034Z" fill="#141E28" fill-opacity="0.48"/>
</svg>
